<mxfile host="app.diagrams.net" modified="2024-03-17T08:53:17.113Z" agent="Mozilla/5.0 (Windows NT 10.0; Win64; x64) AppleWebKit/537.36 (KHTML, like Gecko) Chrome/121.0.0.0 Safari/537.36" etag="MEswaFfQf0YICKEDwQ2j" version="24.0.7" type="device">
  <diagram name="Trang-1" id="QAWsOOYA9e6FpEm0job4">
    <mxGraphModel dx="1059" dy="597" grid="0" gridSize="10" guides="1" tooltips="1" connect="1" arrows="1" fold="1" page="1" pageScale="1" pageWidth="827" pageHeight="1169" math="0" shadow="0">
      <root>
        <mxCell id="0" />
        <mxCell id="1" parent="0" />
        <mxCell id="N23GbnRtg9cUTI5ia993-2" value="Cán bộ" style="rounded=1;whiteSpace=wrap;html=1;fontSize=14;" vertex="1" parent="1">
          <mxGeometry x="193" y="130" width="100" height="41" as="geometry" />
        </mxCell>
        <mxCell id="N23GbnRtg9cUTI5ia993-3" value="Thông tin cá nhân" style="text;strokeColor=none;fillColor=none;align=left;verticalAlign=middle;spacingLeft=4;spacingRight=4;overflow=hidden;points=[[0,0.5],[1,0.5]];portConstraint=eastwest;rotatable=0;whiteSpace=wrap;html=1;" vertex="1" parent="1">
          <mxGeometry x="248" y="60" width="120" height="30" as="geometry" />
        </mxCell>
        <mxCell id="N23GbnRtg9cUTI5ia993-4" value="Yêu cầu kiểm tra" style="text;strokeColor=none;fillColor=none;align=left;verticalAlign=middle;spacingLeft=4;spacingRight=4;overflow=hidden;points=[[0,0.5],[1,0.5]];portConstraint=eastwest;rotatable=0;whiteSpace=wrap;html=1;" vertex="1" parent="1">
          <mxGeometry x="250.5" y="220" width="115" height="30" as="geometry" />
        </mxCell>
        <mxCell id="N23GbnRtg9cUTI5ia993-27" value="" style="edgeStyle=orthogonalEdgeStyle;rounded=0;orthogonalLoop=1;jettySize=auto;html=1;" edge="1" parent="1" source="N23GbnRtg9cUTI5ia993-8" target="N23GbnRtg9cUTI5ia993-20">
          <mxGeometry relative="1" as="geometry">
            <Array as="points">
              <mxPoint x="208" y="270" />
            </Array>
          </mxGeometry>
        </mxCell>
        <mxCell id="N23GbnRtg9cUTI5ia993-8" value="b. Hồ sơ cán bộ" style="rounded=0;whiteSpace=wrap;html=1;fontSize=14;" vertex="1" parent="1">
          <mxGeometry x="388" y="261" width="120" height="40" as="geometry" />
        </mxCell>
        <mxCell id="N23GbnRtg9cUTI5ia993-10" value="Ban Lãnh đạo" style="rounded=0;whiteSpace=wrap;html=1;fontSize=14;" vertex="1" parent="1">
          <mxGeometry x="388" y="390" width="145" height="60" as="geometry" />
        </mxCell>
        <mxCell id="N23GbnRtg9cUTI5ia993-13" value="a." style="rounded=0;whiteSpace=wrap;html=1;fontSize=14;" vertex="1" parent="1">
          <mxGeometry x="388" y="540" width="120" height="60" as="geometry" />
        </mxCell>
        <mxCell id="N23GbnRtg9cUTI5ia993-15" value="Báo cáo" style="text;strokeColor=none;fillColor=none;align=left;verticalAlign=middle;spacingLeft=4;spacingRight=4;overflow=hidden;points=[[0,0.5],[1,0.5]];portConstraint=eastwest;rotatable=0;whiteSpace=wrap;html=1;" vertex="1" parent="1">
          <mxGeometry x="285.5" y="310" width="80" height="30" as="geometry" />
        </mxCell>
        <mxCell id="N23GbnRtg9cUTI5ia993-16" value="Yêu cầu" style="text;strokeColor=none;fillColor=none;align=left;verticalAlign=middle;spacingLeft=4;spacingRight=4;overflow=hidden;points=[[0,0.5],[1,0.5]];portConstraint=eastwest;rotatable=0;whiteSpace=wrap;html=1;" vertex="1" parent="1">
          <mxGeometry x="553" y="381" width="80" height="30" as="geometry" />
        </mxCell>
        <mxCell id="N23GbnRtg9cUTI5ia993-17" value="Yêu cầu" style="text;strokeColor=none;fillColor=none;align=left;verticalAlign=middle;spacingLeft=4;spacingRight=4;overflow=hidden;points=[[0,0.5],[1,0.5]];portConstraint=eastwest;rotatable=0;whiteSpace=wrap;html=1;" vertex="1" parent="1">
          <mxGeometry x="233" y="440" width="80" height="30" as="geometry" />
        </mxCell>
        <mxCell id="N23GbnRtg9cUTI5ia993-18" value="Yêu cầu" style="text;strokeColor=none;fillColor=none;align=left;verticalAlign=middle;spacingLeft=4;spacingRight=4;overflow=hidden;points=[[0,0.5],[1,0.5]];portConstraint=eastwest;rotatable=0;whiteSpace=wrap;html=1;" vertex="1" parent="1">
          <mxGeometry x="533" y="460" width="80" height="30" as="geometry" />
        </mxCell>
        <mxCell id="N23GbnRtg9cUTI5ia993-20" value="&lt;span style=&quot;font-size: 14px; font-weight: 700;&quot;&gt;1.2. Xem thông tin&lt;/span&gt;" style="ellipse;whiteSpace=wrap;html=1;" vertex="1" parent="1">
          <mxGeometry x="133" y="301" width="150" height="110" as="geometry" />
        </mxCell>
        <mxCell id="N23GbnRtg9cUTI5ia993-21" value="&lt;span style=&quot;font-size: 14px; font-weight: 700;&quot;&gt;1.4. Hủy bỏ thông tin&lt;/span&gt;" style="ellipse;whiteSpace=wrap;html=1;" vertex="1" parent="1">
          <mxGeometry x="588" y="480" width="145" height="110" as="geometry" />
        </mxCell>
        <mxCell id="N23GbnRtg9cUTI5ia993-22" value="&lt;span style=&quot;font-size: 14px; font-weight: 700;&quot;&gt;1.3. Điều chỉnh thông tin&lt;/span&gt;" style="ellipse;whiteSpace=wrap;html=1;" vertex="1" parent="1">
          <mxGeometry x="593" y="261" width="145" height="110" as="geometry" />
        </mxCell>
        <mxCell id="N23GbnRtg9cUTI5ia993-23" value="&lt;span style=&quot;font-size: 14px; font-weight: 700;&quot;&gt;1.1. Cập nhật hồ sơ cán bộ&lt;/span&gt;" style="ellipse;whiteSpace=wrap;html=1;" vertex="1" parent="1">
          <mxGeometry x="368" y="81" width="165" height="110.5" as="geometry" />
        </mxCell>
        <mxCell id="N23GbnRtg9cUTI5ia993-24" value="" style="endArrow=classic;html=1;rounded=0;entryX=0;entryY=0;entryDx=0;entryDy=0;exitX=0.5;exitY=0;exitDx=0;exitDy=0;edgeStyle=orthogonalEdgeStyle;" edge="1" parent="1" source="N23GbnRtg9cUTI5ia993-2" target="N23GbnRtg9cUTI5ia993-23">
          <mxGeometry width="50" height="50" relative="1" as="geometry">
            <mxPoint x="343" y="330" as="sourcePoint" />
            <mxPoint x="393" y="280" as="targetPoint" />
          </mxGeometry>
        </mxCell>
        <mxCell id="N23GbnRtg9cUTI5ia993-25" value="" style="endArrow=classic;html=1;rounded=0;entryX=0.391;entryY=1.008;entryDx=0;entryDy=0;entryPerimeter=0;edgeStyle=orthogonalEdgeStyle;exitX=0.272;exitY=0.946;exitDx=0;exitDy=0;exitPerimeter=0;" edge="1" parent="1" source="N23GbnRtg9cUTI5ia993-23" target="N23GbnRtg9cUTI5ia993-2">
          <mxGeometry width="50" height="50" relative="1" as="geometry">
            <mxPoint x="413" y="187" as="sourcePoint" />
            <mxPoint x="393" y="280" as="targetPoint" />
            <Array as="points">
              <mxPoint x="413" y="190" />
              <mxPoint x="413" y="220" />
              <mxPoint x="232" y="220" />
            </Array>
          </mxGeometry>
        </mxCell>
        <mxCell id="N23GbnRtg9cUTI5ia993-26" value="" style="endArrow=classic;html=1;rounded=0;entryX=0.418;entryY=0.995;entryDx=0;entryDy=0;entryPerimeter=0;exitX=0.408;exitY=-0.019;exitDx=0;exitDy=0;exitPerimeter=0;" edge="1" parent="1" source="N23GbnRtg9cUTI5ia993-8" target="N23GbnRtg9cUTI5ia993-23">
          <mxGeometry width="50" height="50" relative="1" as="geometry">
            <mxPoint x="343" y="330" as="sourcePoint" />
            <mxPoint x="393" y="280" as="targetPoint" />
          </mxGeometry>
        </mxCell>
        <mxCell id="N23GbnRtg9cUTI5ia993-28" value="" style="endArrow=classic;html=1;rounded=0;entryX=0.75;entryY=0;entryDx=0;entryDy=0;exitX=0.666;exitY=0.971;exitDx=0;exitDy=0;exitPerimeter=0;" edge="1" parent="1" source="N23GbnRtg9cUTI5ia993-23" target="N23GbnRtg9cUTI5ia993-8">
          <mxGeometry width="50" height="50" relative="1" as="geometry">
            <mxPoint x="343" y="330" as="sourcePoint" />
            <mxPoint x="393" y="280" as="targetPoint" />
          </mxGeometry>
        </mxCell>
        <mxCell id="N23GbnRtg9cUTI5ia993-29" value="" style="endArrow=classic;html=1;rounded=0;entryX=0.076;entryY=0.757;entryDx=0;entryDy=0;entryPerimeter=0;exitX=0.5;exitY=1;exitDx=0;exitDy=0;edgeStyle=orthogonalEdgeStyle;" edge="1" parent="1" source="N23GbnRtg9cUTI5ia993-8" target="N23GbnRtg9cUTI5ia993-22">
          <mxGeometry width="50" height="50" relative="1" as="geometry">
            <mxPoint x="343" y="330" as="sourcePoint" />
            <mxPoint x="393" y="280" as="targetPoint" />
          </mxGeometry>
        </mxCell>
        <mxCell id="N23GbnRtg9cUTI5ia993-30" value="" style="endArrow=classic;html=1;rounded=0;entryX=0.5;entryY=1;entryDx=0;entryDy=0;exitX=1;exitY=0.5;exitDx=0;exitDy=0;edgeStyle=orthogonalEdgeStyle;" edge="1" parent="1" source="N23GbnRtg9cUTI5ia993-10" target="N23GbnRtg9cUTI5ia993-22">
          <mxGeometry width="50" height="50" relative="1" as="geometry">
            <mxPoint x="343" y="330" as="sourcePoint" />
            <mxPoint x="393" y="280" as="targetPoint" />
          </mxGeometry>
        </mxCell>
        <mxCell id="N23GbnRtg9cUTI5ia993-31" value="" style="endArrow=classic;html=1;rounded=0;entryX=0.5;entryY=0;entryDx=0;entryDy=0;exitX=1;exitY=0.75;exitDx=0;exitDy=0;edgeStyle=orthogonalEdgeStyle;" edge="1" parent="1" source="N23GbnRtg9cUTI5ia993-10" target="N23GbnRtg9cUTI5ia993-21">
          <mxGeometry width="50" height="50" relative="1" as="geometry">
            <mxPoint x="343" y="330" as="sourcePoint" />
            <mxPoint x="393" y="280" as="targetPoint" />
          </mxGeometry>
        </mxCell>
        <mxCell id="N23GbnRtg9cUTI5ia993-32" value="" style="endArrow=classic;html=1;rounded=0;entryX=0.75;entryY=0;entryDx=0;entryDy=0;exitX=0;exitY=0;exitDx=0;exitDy=0;edgeStyle=orthogonalEdgeStyle;" edge="1" parent="1" source="N23GbnRtg9cUTI5ia993-21" target="N23GbnRtg9cUTI5ia993-13">
          <mxGeometry width="50" height="50" relative="1" as="geometry">
            <mxPoint x="343" y="330" as="sourcePoint" />
            <mxPoint x="393" y="280" as="targetPoint" />
          </mxGeometry>
        </mxCell>
        <mxCell id="N23GbnRtg9cUTI5ia993-33" value="" style="endArrow=classic;html=1;rounded=0;entryX=0.5;entryY=1;entryDx=0;entryDy=0;exitX=0.31;exitY=1.038;exitDx=0;exitDy=0;exitPerimeter=0;edgeStyle=orthogonalEdgeStyle;" edge="1" parent="1" source="N23GbnRtg9cUTI5ia993-10" target="N23GbnRtg9cUTI5ia993-20">
          <mxGeometry width="50" height="50" relative="1" as="geometry">
            <mxPoint x="343" y="330" as="sourcePoint" />
            <mxPoint x="393" y="280" as="targetPoint" />
            <Array as="points">
              <mxPoint x="433" y="480" />
              <mxPoint x="208" y="480" />
            </Array>
          </mxGeometry>
        </mxCell>
        <mxCell id="N23GbnRtg9cUTI5ia993-34" value="" style="endArrow=classic;html=1;rounded=0;exitX=1;exitY=0.5;exitDx=0;exitDy=0;edgeStyle=orthogonalEdgeStyle;" edge="1" parent="1" source="N23GbnRtg9cUTI5ia993-20">
          <mxGeometry width="50" height="50" relative="1" as="geometry">
            <mxPoint x="343" y="330" as="sourcePoint" />
            <mxPoint x="423" y="391" as="targetPoint" />
            <Array as="points">
              <mxPoint x="423" y="345" />
              <mxPoint x="423" y="391" />
            </Array>
          </mxGeometry>
        </mxCell>
        <mxCell id="N23GbnRtg9cUTI5ia993-35" value="" style="endArrow=classic;html=1;rounded=0;exitX=0.4;exitY=-0.016;exitDx=0;exitDy=0;exitPerimeter=0;edgeStyle=orthogonalEdgeStyle;" edge="1" parent="1" source="N23GbnRtg9cUTI5ia993-22">
          <mxGeometry width="50" height="50" relative="1" as="geometry">
            <mxPoint x="343" y="330" as="sourcePoint" />
            <mxPoint x="493" y="261" as="targetPoint" />
            <Array as="points">
              <mxPoint x="651" y="220" />
              <mxPoint x="493" y="220" />
              <mxPoint x="493" y="261" />
            </Array>
          </mxGeometry>
        </mxCell>
      </root>
    </mxGraphModel>
  </diagram>
</mxfile>
